<svg width="62" height="33" viewBox="0 0 62 33" fill="none" xmlns="http://www.w3.org/2000/svg">
<rect x="0.5" y="0.5" width="61" height="32" rx="16" fill="#1A1A1A"/>
<rect x="0.5" y="0.5" width="61" height="32" rx="16" stroke="#262626"/>
<path d="M19.0712 22.4906C19.9552 22.9235 20.949 23.1666 21.9997 23.1666C25.6816 23.1666 28.6663 20.1819 28.6663 16.4999C28.6663 12.818 25.6816 9.83325 21.9997 9.83325C18.3178 9.83325 15.333 12.818 15.333 16.4999C15.333 17.8667 15.7443 19.1374 16.4499 20.195M19.0712 22.4906L15.333 23.1666L16.4499 20.195M19.0712 22.4906L19.0766 22.4897M16.4499 20.195L16.451 20.1922" stroke="#666666" stroke-width="1.5" stroke-linecap="round" stroke-linejoin="round"/>
<path d="M34.5811 20.8926L35.2441 19.9424C35.4629 20.3161 35.7705 20.61 36.167 20.8242C36.5635 21.0339 37.0033 21.1387 37.4863 21.1387C37.9603 21.1387 38.3773 21.0407 38.7373 20.8447C39.0973 20.6442 39.3776 20.3685 39.5781 20.0176C39.7786 19.6621 39.8789 19.252 39.8789 18.7871C39.8789 18.3223 39.7786 17.9144 39.5781 17.5635C39.3776 17.208 39.0973 16.9323 38.7373 16.7363C38.3773 16.5404 37.9626 16.4424 37.4932 16.4424C37.1787 16.4424 36.8825 16.4902 36.6045 16.5859C36.3311 16.6771 36.0827 16.8115 35.8594 16.9893L35.2441 16.5996L35.6953 11.7461H40.6445V12.8125H36.8027L36.5156 15.7314C36.903 15.5993 37.3177 15.5332 37.7598 15.5332C38.416 15.5332 38.9948 15.6745 39.4961 15.957C39.9974 16.235 40.3893 16.6201 40.6719 17.1123C40.959 17.6045 41.1025 18.1742 41.1025 18.8213C41.1025 19.4867 40.9521 20.0745 40.6514 20.585C40.3506 21.0908 39.9336 21.4873 39.4004 21.7744C38.8672 22.0615 38.252 22.2051 37.5547 22.2051C36.9486 22.2051 36.388 22.0911 35.873 21.8633C35.3581 21.6354 34.9274 21.3118 34.5811 20.8926ZM45.3173 22.2051C44.5973 22.2051 43.9775 21.9977 43.4579 21.583C42.9384 21.1637 42.5396 20.5576 42.2616 19.7646C41.9836 18.9671 41.8446 18.001 41.8446 16.8662C41.8446 15.736 41.9836 14.7744 42.2616 13.9814C42.5396 13.1885 42.9384 12.5846 43.4579 12.1699C43.9775 11.7507 44.5973 11.541 45.3173 11.541C46.0419 11.541 46.6617 11.7507 47.1767 12.1699C47.6962 12.5846 48.095 13.1885 48.373 13.9814C48.651 14.7744 48.79 15.736 48.79 16.8662C48.79 18.001 48.651 18.9671 48.373 19.7646C48.0995 20.5576 47.703 21.1637 47.1835 21.583C46.664 21.9977 46.0419 22.2051 45.3173 22.2051ZM45.3173 21.1387C46.0237 21.1387 46.5728 20.7627 46.9648 20.0107C47.3612 19.2588 47.5595 18.2106 47.5595 16.8662C47.5595 15.5218 47.3612 14.4759 46.9648 13.7285C46.5728 12.9811 46.0237 12.6074 45.3173 12.6074C44.6155 12.6074 44.0663 12.9811 43.6698 13.7285C43.2734 14.4759 43.0751 15.5218 43.0751 16.8662C43.0751 18.2106 43.2734 19.2588 43.6698 20.0107C44.0663 20.7627 44.6155 21.1387 45.3173 21.1387Z" fill="#98989A"/>
</svg>
