<svg width="92" height="42" viewBox="0 0 92 42" fill="none" xmlns="http://www.w3.org/2000/svg">
<rect x="0.5" y="0.5" width="91" height="41" rx="20.5" fill="#141414"/>
<rect x="0.5" y="0.5" width="91" height="41" rx="20.5" stroke="#262626"/>
<path d="M26.6154 30.6532L26.6083 30.6494L26.5838 30.6361C26.5629 30.6248 26.533 30.6084 26.4947 30.587C26.4182 30.5443 26.308 30.4818 26.169 30.4C25.8912 30.2366 25.4976 29.9959 25.0268 29.6829C24.0866 29.0579 22.8305 28.1393 21.571 26.9652C19.0785 24.6417 16.4375 21.1897 16.4375 16.9375C16.4375 13.7654 19.1064 11.25 22.3281 11.25C24.2227 11.25 25.9192 12.1157 27 13.4726C28.0808 12.1157 29.7773 11.25 31.6719 11.25C34.8936 11.25 37.5625 13.7654 37.5625 16.9375C37.5625 21.1897 34.9215 24.6417 32.429 26.9652C31.1695 28.1393 29.9134 29.0579 28.9732 29.6829C28.5024 29.9959 28.1088 30.2366 27.831 30.4C27.692 30.4818 27.5818 30.5443 27.5053 30.587C27.467 30.6084 27.4371 30.6248 27.4162 30.6361L27.3917 30.6494L27.3846 30.6532L27.3816 30.6548C27.1433 30.7813 26.8567 30.7813 26.6184 30.6548L26.6154 30.6532Z" fill="#FF5500"/>
<path d="M51.4785 26.5H45.3193V25.7412C46.1624 25.0212 46.8802 24.3626 47.4727 23.7656C48.0697 23.1686 48.555 22.6149 48.9287 22.1045C49.3024 21.5941 49.5758 21.1133 49.749 20.6621C49.9268 20.2109 50.0156 19.7734 50.0156 19.3496C50.0156 18.9076 49.9313 18.5179 49.7627 18.1807C49.5941 17.8389 49.3594 17.5745 49.0586 17.3877C48.7578 17.1963 48.4092 17.1006 48.0127 17.1006C47.5615 17.1006 47.1309 17.2305 46.7207 17.4902C46.3151 17.7454 45.9824 18.0986 45.7227 18.5498L45.0596 17.8047C45.4105 17.2487 45.8639 16.8158 46.4199 16.5059C46.9759 16.196 47.5729 16.041 48.2109 16.041C48.8034 16.041 49.3275 16.1732 49.7832 16.4375C50.2389 16.6973 50.5967 17.0573 50.8564 17.5176C51.1162 17.9779 51.2461 18.5088 51.2461 19.1104C51.2461 19.598 51.1549 20.1016 50.9727 20.6211C50.7904 21.1361 50.5192 21.6624 50.1592 22.2002C49.7992 22.7334 49.3525 23.2712 48.8193 23.8135C48.2907 24.3558 47.68 24.8981 46.9873 25.4404H51.4785V26.5ZM58.5234 26.5H57.3202V24.0527H52.1591V23.1025L57.3271 16.2461H58.5234V22.9932H59.7743V24.0527H58.5234V26.5ZM53.5263 22.9932H57.3202V17.9551L53.5263 22.9932ZM61.4461 26.6367C61.2456 26.6367 61.0815 26.5752 60.9539 26.4521C60.8309 26.3245 60.7694 26.1605 60.7694 25.96C60.7694 25.7549 60.8309 25.5885 60.9539 25.4609C61.0815 25.3333 61.2456 25.2695 61.4461 25.2695C61.6467 25.2695 61.8107 25.3333 61.9383 25.4609C62.0705 25.5885 62.1366 25.7549 62.1366 25.96C62.1366 26.1605 62.0705 26.3245 61.9383 26.4521C61.8107 26.5752 61.6467 26.6367 61.4461 26.6367ZM63.2 25.3926L63.863 24.4424C64.0818 24.8161 64.3894 25.11 64.7859 25.3242C65.1824 25.5339 65.6222 25.6387 66.1052 25.6387C66.5792 25.6387 66.9962 25.5407 67.3562 25.3447C67.7162 25.1442 67.9965 24.8685 68.197 24.5176C68.3976 24.1621 68.4978 23.752 68.4978 23.2871C68.4978 22.8223 68.3976 22.4144 68.197 22.0635C67.9965 21.708 67.7162 21.4323 67.3562 21.2363C66.9962 21.0404 66.5815 20.9424 66.1121 20.9424C65.7976 20.9424 65.5014 20.9902 65.2234 21.0859C64.95 21.1771 64.7016 21.3115 64.4783 21.4893L63.863 21.0996L64.3142 16.2461H69.2634V17.3125H65.4216L65.1345 20.2314C65.5219 20.0993 65.9366 20.0332 66.3787 20.0332C67.0349 20.0332 67.6137 20.1745 68.115 20.457C68.6163 20.735 69.0082 21.1201 69.2908 21.6123C69.5779 22.1045 69.7214 22.6742 69.7214 23.3213C69.7214 23.9867 69.5711 24.5745 69.2703 25.085C68.9695 25.5908 68.5525 25.9873 68.0193 26.2744C67.4861 26.5615 66.8709 26.7051 66.1736 26.7051C65.5675 26.7051 65.0069 26.5911 64.492 26.3633C63.977 26.1354 63.5463 25.8118 63.2 25.3926ZM72.0632 26.5H70.9421V16.2461H72.0632V23.4648L72.5964 22.8154L75.57 19.6641H76.9782L74.1891 22.6309L77.4089 26.5H75.9528L73.4098 23.4512L72.0632 24.8867V26.5Z" fill="#98989A"/>
</svg>
