<svg width="18" height="18" viewBox="0 0 18 18" fill="none" xmlns="http://www.w3.org/2000/svg">
<path d="M16.3878 0.333374H1.61352C1.27417 0.333374 0.948712 0.468182 0.708752 0.708142C0.468793 0.948102 0.333984 1.27356 0.333984 1.61291V16.3872C0.333984 16.7265 0.468793 17.052 0.708752 17.2919C0.948712 17.5319 1.27417 17.6667 1.61352 17.6667H16.3878C16.7271 17.6667 17.0526 17.5319 17.2926 17.2919C17.5325 17.052 17.6673 16.7265 17.6673 16.3872V1.61291C17.6673 1.27356 17.5325 0.948102 17.2926 0.708142C17.0526 0.468182 16.7271 0.333374 16.3878 0.333374ZM5.50028 15.0992H2.89426V6.82134H5.50028V15.0992ZM4.19547 5.67421C3.89986 5.67254 3.61137 5.58335 3.3664 5.41788C3.12144 5.25241 2.93098 5.01809 2.81906 4.74448C2.70714 4.47087 2.67879 4.17025 2.73756 3.88054C2.79634 3.59083 2.93962 3.32502 3.14932 3.11666C3.35902 2.9083 3.62574 2.76673 3.91582 2.70982C4.2059 2.6529 4.50634 2.68319 4.77923 2.79686C5.05211 2.91054 5.28521 3.10249 5.4491 3.34852C5.61299 3.59454 5.70033 3.8836 5.7001 4.17921C5.70288 4.37712 5.6658 4.57357 5.59105 4.75684C5.5163 4.94012 5.40542 5.10647 5.26501 5.24598C5.1246 5.38549 4.95754 5.4953 4.77379 5.56887C4.59004 5.64244 4.39336 5.67827 4.19547 5.67421ZM15.1058 15.1064H12.501V10.5841C12.501 9.25041 11.9341 8.83874 11.2022 8.83874C10.4294 8.83874 9.67111 9.42134 9.67111 10.6178V15.1064H7.06509V6.82736H9.57121V7.97449H9.60491C9.85649 7.46532 10.7376 6.59504 12.0821 6.59504C13.5362 6.59504 15.107 7.4581 15.107 9.98587L15.1058 15.1064Z" fill="white"/>
</svg>
