<svg width="40" height="41" viewBox="0 0 40 41" fill="none" xmlns="http://www.w3.org/2000/svg">
<path d="M26.668 40.4998V33.8332C30.3569 33.8332 33.3346 30.8554 33.3346 27.1665H40.0013C40.0013 34.5443 34.0235 40.4998 26.668 40.4998Z" fill="#FFD11A"/>
<path d="M26.6673 40.4998V33.8332C22.9784 33.8332 20.0007 30.8554 20.0007 27.1665H13.334C13.334 34.5443 19.3118 40.4998 26.6673 40.4998Z" fill="#FFD11A"/>
<path d="M0 27.167H6.66667C6.66667 30.8559 9.64444 33.8337 13.3333 33.8337V40.5003C5.97778 40.5003 0 34.5448 0 27.167Z" fill="#FFD11A"/>
<path d="M0 27.1668H6.66667C6.66667 23.4779 9.64444 20.5002 13.3333 20.5002V13.8335C5.97778 13.8335 0 19.8113 0 27.1668Z" fill="#FFD11A"/>
<path d="M13.3333 0.5V7.16667C9.64444 7.16667 6.66667 10.1444 6.66667 13.8333H0C0 6.47778 5.97778 0.5 13.3333 0.5Z" fill="#FFD11A"/>
<path d="M13.334 0.5V7.16667C17.0229 7.16667 20.0007 10.1444 20.0007 13.8333H26.6673C26.6673 6.47778 20.6895 0.5 13.334 0.5Z" fill="#FFD11A"/>
<path d="M39.9993 13.8333H33.3327C33.3327 10.1444 30.3549 7.16667 26.666 7.16667V0.5C34.0216 0.5 39.9993 6.47778 39.9993 13.8333Z" fill="#FFD11A"/>
<path d="M39.9993 13.8335H33.3327C33.3327 17.5224 30.3549 20.5002 26.666 20.5002V27.1668C34.0216 27.1668 39.9993 21.2113 39.9993 13.8335Z" fill="#FFD11A"/>
</svg>
