<svg width="20" height="20" viewBox="0 0 20 20" fill="none" xmlns="http://www.w3.org/2000/svg">
<path d="M11.2812 10.1897C11.2812 13.332 8.75578 15.8793 5.6407 15.8793C2.52561 15.8793 0 13.3314 0 10.1897C0 7.04806 2.52542 4.5 5.6407 4.5C8.75597 4.5 11.2812 7.04749 11.2812 10.1897Z" fill="white"/>
<path d="M17.4688 10.1897C17.4688 13.1475 16.2061 15.5462 14.6485 15.5462C13.0908 15.5462 11.8281 13.1475 11.8281 10.1897C11.8281 7.23195 13.0906 4.83325 14.6483 4.83325C16.2059 4.83325 17.4686 7.23118 17.4686 10.1897" fill="white"/>
<path d="M19.9993 10.1898C19.9993 12.8392 19.5553 14.9883 19.0074 14.9883C18.4595 14.9883 18.0156 12.8398 18.0156 10.1898C18.0156 7.53977 18.4597 5.39124 19.0074 5.39124C19.5551 5.39124 19.9993 7.53958 19.9993 10.1898Z" fill="white"/>
</svg>
