<svg width="82" height="42" viewBox="0 0 82 42" fill="none" xmlns="http://www.w3.org/2000/svg">
<rect x="0.5" y="0.5" width="81" height="41" rx="20.5" fill="#141414"/>
<rect x="0.5" y="0.5" width="81" height="41" rx="20.5" stroke="#262626"/>
<path d="M24.8752 23.1251L18.5198 20.2363C17.6452 19.8387 17.6825 18.5838 18.5792 18.2389L34.4752 12.1251C35.3513 11.7881 36.2122 12.649 35.8752 13.5251L29.7614 29.4211C29.4165 30.3178 28.1616 30.3551 27.764 29.4804L24.8752 23.1251ZM24.8752 23.1251L29.6253 18.3751" stroke="#666666" stroke-width="1.5" stroke-linecap="round" stroke-linejoin="round"/>
<path d="M51.4785 26.5H45.3193V25.7412C46.1624 25.0212 46.8802 24.3626 47.4727 23.7656C48.0697 23.1686 48.555 22.6149 48.9287 22.1045C49.3024 21.5941 49.5758 21.1133 49.749 20.6621C49.9268 20.2109 50.0156 19.7734 50.0156 19.3496C50.0156 18.9076 49.9313 18.5179 49.7627 18.1807C49.5941 17.8389 49.3594 17.5745 49.0586 17.3877C48.7578 17.1963 48.4092 17.1006 48.0127 17.1006C47.5615 17.1006 47.1309 17.2305 46.7207 17.4902C46.3151 17.7454 45.9824 18.0986 45.7227 18.5498L45.0596 17.8047C45.4105 17.2487 45.8639 16.8158 46.4199 16.5059C46.9759 16.196 47.5729 16.041 48.2109 16.041C48.8034 16.041 49.3275 16.1732 49.7832 16.4375C50.2389 16.6973 50.5967 17.0573 50.8564 17.5176C51.1162 17.9779 51.2461 18.5088 51.2461 19.1104C51.2461 19.598 51.1549 20.1016 50.9727 20.6211C50.7904 21.1361 50.5192 21.6624 50.1592 22.2002C49.7992 22.7334 49.3525 23.2712 48.8193 23.8135C48.2907 24.3558 47.68 24.8981 46.9873 25.4404H51.4785V26.5ZM56.1103 26.7051C55.3902 26.7051 54.7704 26.4977 54.2509 26.083C53.7314 25.6637 53.3326 25.0576 53.0546 24.2646C52.7766 23.4671 52.6376 22.501 52.6376 21.3662C52.6376 20.236 52.7766 19.2744 53.0546 18.4814C53.3326 17.6885 53.7314 17.0846 54.2509 16.6699C54.7704 16.2507 55.3902 16.041 56.1103 16.041C56.8349 16.041 57.4547 16.2507 57.9696 16.6699C58.4892 17.0846 58.8879 17.6885 59.1659 18.4814C59.4439 19.2744 59.5829 20.236 59.5829 21.3662C59.5829 22.501 59.4439 23.4671 59.1659 24.2646C58.8925 25.0576 58.496 25.6637 57.9765 26.083C57.457 26.4977 56.8349 26.7051 56.1103 26.7051ZM56.1103 25.6387C56.8167 25.6387 57.3658 25.2627 57.7577 24.5107C58.1542 23.7588 58.3525 22.7106 58.3525 21.3662C58.3525 20.0218 58.1542 18.9759 57.7577 18.2285C57.3658 17.4811 56.8167 17.1074 56.1103 17.1074C55.4085 17.1074 54.8593 17.4811 54.4628 18.2285C54.0663 18.9759 53.8681 20.0218 53.8681 21.3662C53.8681 22.7106 54.0663 23.7588 54.4628 24.5107C54.8593 25.2627 55.4085 25.6387 56.1103 25.6387ZM63.6405 26.7051C62.9705 26.7051 62.3872 26.5501 61.8905 26.2402C61.3937 25.9303 61.0086 25.4928 60.7352 24.9277C60.4618 24.3626 60.325 23.6973 60.325 22.9316C60.325 22.2845 60.423 21.6442 60.619 21.0107C60.8195 20.3773 61.1021 19.7689 61.4666 19.1855C61.8358 18.5977 62.2801 18.0553 62.7996 17.5586C63.3192 17.0573 63.9002 16.6198 64.5428 16.2461L65.1034 17.0322C64.5246 17.3831 63.9982 17.7933 63.5243 18.2627C63.0503 18.7321 62.6424 19.238 62.3006 19.7803C61.9588 20.3226 61.6968 20.8786 61.5145 21.4482C61.797 21.111 62.1434 20.8467 62.5536 20.6553C62.9637 20.4639 63.4172 20.3682 63.9139 20.3682C64.5109 20.3682 65.0396 20.5003 65.4998 20.7646C65.9647 21.029 66.3293 21.3936 66.5936 21.8584C66.8579 22.3187 66.9901 22.8473 66.9901 23.4443C66.9901 24.0732 66.8442 24.6338 66.5526 25.126C66.2655 25.6136 65.869 25.9987 65.3631 26.2812C64.8618 26.5638 64.2876 26.7051 63.6405 26.7051ZM63.6883 25.6455C64.0848 25.6455 64.438 25.5498 64.7479 25.3584C65.0623 25.1624 65.3084 24.8958 65.4862 24.5586C65.6685 24.2214 65.7596 23.8431 65.7596 23.4238C65.7596 23.0091 65.6707 22.6445 65.493 22.3301C65.3198 22.0156 65.0783 21.7695 64.7684 21.5918C64.4631 21.4095 64.1099 21.3184 63.7088 21.3184C63.3032 21.3184 62.9409 21.4095 62.6219 21.5918C62.3029 21.7741 62.0523 22.0247 61.87 22.3438C61.6877 22.6628 61.5965 23.0296 61.5965 23.4443C61.5965 23.859 61.6877 24.2327 61.87 24.5654C62.0568 24.8981 62.3075 25.1624 62.6219 25.3584C62.9364 25.5498 63.2918 25.6455 63.6883 25.6455Z" fill="#98989A"/>
</svg>
