<svg width="81" height="42" viewBox="0 0 81 42" fill="none" xmlns="http://www.w3.org/2000/svg">
<rect x="0.5" y="0.5" width="80" height="41" rx="20.5" fill="#141414"/>
<rect x="0.5" y="0.5" width="80" height="41" rx="20.5" stroke="#262626"/>
<path d="M37.4035 19.7296C37.6804 20.078 37.8337 20.5306 37.8337 20.9999C37.8337 21.4691 37.6804 21.9217 37.4035 22.2701C35.6502 24.4124 31.6592 28.5832 27.0003 28.5832C22.3415 28.5832 18.3505 24.4124 16.5972 22.2701C16.3203 21.9217 16.167 21.4691 16.167 20.9999C16.167 20.5306 16.3203 20.078 16.5972 19.7296C18.3505 17.5873 22.3415 13.4165 27.0003 13.4165C31.6592 13.4165 35.6502 17.5873 37.4035 19.7296Z" stroke="#98989A" stroke-width="1.5" stroke-linecap="round" stroke-linejoin="round"/>
<path d="M27.0009 24.37C28.8453 24.37 30.3406 22.8611 30.3406 20.9997C30.3406 19.1383 28.8453 17.6294 27.0009 17.6294C25.1564 17.6294 23.6612 19.1383 23.6612 20.9997C23.6612 22.8611 25.1564 24.37 27.0009 24.37Z" stroke="#98989A" stroke-width="1.5" stroke-linecap="round" stroke-linejoin="round"/>
<path d="M44.5811 25.3926L45.2441 24.4424C45.4629 24.8161 45.7705 25.11 46.167 25.3242C46.5635 25.5339 47.0033 25.6387 47.4863 25.6387C47.9603 25.6387 48.3773 25.5407 48.7373 25.3447C49.0973 25.1442 49.3776 24.8685 49.5781 24.5176C49.7786 24.1621 49.8789 23.752 49.8789 23.2871C49.8789 22.8223 49.7786 22.4144 49.5781 22.0635C49.3776 21.708 49.0973 21.4323 48.7373 21.2363C48.3773 21.0404 47.9626 20.9424 47.4932 20.9424C47.1787 20.9424 46.8825 20.9902 46.6045 21.0859C46.3311 21.1771 46.0827 21.3115 45.8594 21.4893L45.2441 21.0996L45.6953 16.2461H50.6445V17.3125H46.8027L46.5156 20.2314C46.903 20.0993 47.3177 20.0332 47.7598 20.0332C48.416 20.0332 48.9948 20.1745 49.4961 20.457C49.9974 20.735 50.3893 21.1201 50.6719 21.6123C50.959 22.1045 51.1025 22.6742 51.1025 23.3213C51.1025 23.9867 50.9521 24.5745 50.6514 25.085C50.3506 25.5908 49.9336 25.9873 49.4004 26.2744C48.8672 26.5615 48.252 26.7051 47.5547 26.7051C46.9486 26.7051 46.388 26.5911 45.873 26.3633C45.3581 26.1354 44.9274 25.8118 44.5811 25.3926ZM55.3173 26.7051C54.5973 26.7051 53.9775 26.4977 53.4579 26.083C52.9384 25.6637 52.5396 25.0576 52.2616 24.2646C51.9836 23.4671 51.8446 22.501 51.8446 21.3662C51.8446 20.236 51.9836 19.2744 52.2616 18.4814C52.5396 17.6885 52.9384 17.0846 53.4579 16.6699C53.9775 16.2507 54.5973 16.041 55.3173 16.041C56.0419 16.041 56.6617 16.2507 57.1767 16.6699C57.6962 17.0846 58.095 17.6885 58.373 18.4814C58.651 19.2744 58.79 20.236 58.79 21.3662C58.79 22.501 58.651 23.4671 58.373 24.2646C58.0995 25.0576 57.703 25.6637 57.1835 26.083C56.664 26.4977 56.0419 26.7051 55.3173 26.7051ZM55.3173 25.6387C56.0237 25.6387 56.5728 25.2627 56.9648 24.5107C57.3612 23.7588 57.5595 22.7106 57.5595 21.3662C57.5595 20.0218 57.3612 18.9759 56.9648 18.2285C56.5728 17.4811 56.0237 17.1074 55.3173 17.1074C54.6155 17.1074 54.0663 17.4811 53.6698 18.2285C53.2734 18.9759 53.0751 20.0218 53.0751 21.3662C53.0751 22.7106 53.2734 23.7588 53.6698 24.5107C54.0663 25.2627 54.6155 25.6387 55.3173 25.6387ZM61.1317 26.5H60.0106V16.2461H61.1317V23.4648L61.6649 22.8154L64.6385 19.6641H66.0467L63.2577 22.6309L66.4774 26.5H65.0213L62.4784 23.4512L61.1317 24.8867V26.5Z" fill="#98989A"/>
</svg>
